<svg width="40" height="40" viewBox="0 0 40 40" fill="none" xmlns="http://www.w3.org/2000/svg">
<path d="M20.0834 31.6668L24.8334 26.9585L20.0834 22.2502L18.3334 24.0002L20.125 25.7918C19.3473 25.8196 18.5903 25.6946 17.8542 25.4168C17.1181 25.139 16.4584 24.7085 15.875 24.1252C15.3195 23.5696 14.8959 22.9307 14.6042 22.2085C14.3125 21.4863 14.1667 20.7641 14.1667 20.0418C14.1667 19.5696 14.2292 19.0974 14.3542 18.6252C14.4792 18.1529 14.6528 17.6946 14.875 17.2502L13.0417 15.4168C12.5695 16.1113 12.2223 16.8474 12 17.6252C11.7778 18.4029 11.6667 19.1946 11.6667 20.0002C11.6667 21.0557 11.875 22.0974 12.2917 23.1252C12.7084 24.1529 13.3195 25.0696 14.125 25.8752C14.9306 26.6807 15.8334 27.2849 16.8334 27.6877C17.8334 28.0904 18.8612 28.3057 19.9167 28.3335L18.3334 29.9168L20.0834 31.6668ZM26.9584 24.5835C27.4306 23.889 27.7778 23.1529 28 22.3752C28.2223 21.5974 28.3334 20.8057 28.3334 20.0002C28.3334 18.9446 28.132 17.896 27.7292 16.8543C27.3264 15.8127 26.7223 14.8891 25.9167 14.0835C25.1112 13.2779 24.2014 12.6807 23.1875 12.2918C22.1737 11.9029 21.1389 11.7085 20.0834 11.7085L21.6667 10.0835L19.9167 8.3335L15.1667 13.0418L19.9167 17.7502L21.6667 16.0002L19.8334 14.1668C20.5834 14.1668 21.3473 14.3127 22.125 14.6043C22.9028 14.896 23.5695 15.3196 24.125 15.8752C24.6806 16.4307 25.1042 17.0696 25.3959 17.7918C25.6875 18.5141 25.8334 19.2363 25.8334 19.9585C25.8334 20.4307 25.7709 20.9029 25.6459 21.3752C25.5209 21.8474 25.3473 22.3057 25.125 22.7502L26.9584 24.5835ZM20 36.6668C17.7223 36.6668 15.5695 36.2293 13.5417 35.3543C11.5139 34.4793 9.7431 33.2849 8.22921 31.771C6.71532 30.2571 5.52087 28.4863 4.64587 26.4585C3.77087 24.4307 3.33337 22.2779 3.33337 20.0002C3.33337 17.6946 3.77087 15.5279 4.64587 13.5002C5.52087 11.4724 6.71532 9.7085 8.22921 8.2085C9.7431 6.7085 11.5139 5.521 13.5417 4.646C15.5695 3.771 17.7223 3.3335 20 3.3335C22.3056 3.3335 24.4723 3.771 26.5 4.646C28.5278 5.521 30.2917 6.7085 31.7917 8.2085C33.2917 9.7085 34.4792 11.4724 35.3542 13.5002C36.2292 15.5279 36.6667 17.6946 36.6667 20.0002C36.6667 22.2779 36.2292 24.4307 35.3542 26.4585C34.4792 28.4863 33.2917 30.2571 31.7917 31.771C30.2917 33.2849 28.5278 34.4793 26.5 35.3543C24.4723 36.2293 22.3056 36.6668 20 36.6668Z" fill="#041B54"/>
</svg>
