<svg width="60" height="32" viewBox="0 0 60 32" fill="none" xmlns="http://www.w3.org/2000/svg">
<g clip-path="url(#clip0_13_137)">
<path d="M60 0H0V31.5789H60V0Z" fill="#B22234"/>
<path d="M0 3.6438H60H0ZM60 8.5021H0H60ZM0 13.3604H60H0ZM60 18.2187H0H60ZM0 23.077H60H0ZM60 27.9353H0H60Z" fill="black"/>
<path d="M0 3.6438H60M60 8.5021H0M0 13.3604H60M60 18.2187H0M0 23.077H60M60 27.9353H0" stroke="white" stroke-width="2.42915"/>
<path d="M24 0H0V17.004H24V0Z" fill="#3C3B6E"/>
<path d="M2.00028 0.729004L2.5714 2.48675L1.07617 1.4004H2.92438L1.42915 2.48675L2.00028 0.729004Z" fill="white"/>
<path d="M2.00028 4.12939L2.5714 5.88714L1.07617 4.8008H2.92438L1.42915 5.88714L2.00028 4.12939Z" fill="white"/>
<path d="M2.00028 7.53052L2.5714 9.28827L1.07617 8.20192H2.92438L1.42915 9.28827L2.00028 7.53052Z" fill="white"/>
<path d="M2.00028 10.9312L2.5714 12.6889L1.07617 11.6026H2.92438L1.42915 12.6889L2.00028 10.9312Z" fill="white"/>
<path d="M2.00028 14.332L2.5714 16.0898L1.07617 15.0034H2.92438L1.42915 16.0898L2.00028 14.332Z" fill="white"/>
<path d="M4.00003 2.4292L4.57116 4.18695L3.07593 3.1006H4.92413L3.4289 4.18695L4.00003 2.4292Z" fill="white"/>
<path d="M4.00003 5.83008L4.57116 7.58783L3.07593 6.50148H4.92413L3.4289 7.58783L4.00003 5.83008Z" fill="white"/>
<path d="M4.00003 9.23096L4.57116 10.9887L3.07593 9.90236H4.92413L3.4289 10.9887L4.00003 9.23096Z" fill="white"/>
<path d="M4.00003 12.6316L4.57116 14.3893L3.07593 13.303H4.92413L3.4289 14.3893L4.00003 12.6316Z" fill="white"/>
<path d="M6.00003 0.729004L6.57116 2.48675L5.07593 1.4004H6.92413L5.4289 2.48675L6.00003 0.729004Z" fill="white"/>
<path d="M6.00003 4.12939L6.57116 5.88714L5.07593 4.8008H6.92413L5.4289 5.88714L6.00003 4.12939Z" fill="white"/>
<path d="M6.00003 7.53052L6.57116 9.28827L5.07593 8.20192H6.92413L5.4289 9.28827L6.00003 7.53052Z" fill="white"/>
<path d="M6.00003 10.9312L6.57116 12.6889L5.07593 11.6026H6.92413L5.4289 12.6889L6.00003 10.9312Z" fill="white"/>
<path d="M6.00003 14.332L6.57116 16.0898L5.07593 15.0034H6.92413L5.4289 16.0898L6.00003 14.332Z" fill="white"/>
<path d="M8.00052 2.4292L8.57165 4.18695L7.07642 3.1006H8.92462L7.42939 4.18695L8.00052 2.4292Z" fill="white"/>
<path d="M8.00052 5.83008L8.57165 7.58783L7.07642 6.50148H8.92462L7.42939 7.58783L8.00052 5.83008Z" fill="white"/>
<path d="M8.00052 9.23096L8.57165 10.9887L7.07642 9.90236H8.92462L7.42939 10.9887L8.00052 9.23096Z" fill="white"/>
<path d="M8.00052 12.6316L8.57165 14.3893L7.07642 13.303H8.92462L7.42939 14.3893L8.00052 12.6316Z" fill="white"/>
<path d="M9.99979 0.729004L10.5709 2.48675L9.07568 1.4004H10.9239L9.42866 2.48675L9.99979 0.729004Z" fill="white"/>
<path d="M9.99979 4.12939L10.5709 5.88714L9.07568 4.8008H10.9239L9.42866 5.88714L9.99979 4.12939Z" fill="white"/>
<path d="M9.99979 7.53052L10.5709 9.28827L9.07568 8.20192H10.9239L9.42866 9.28827L9.99979 7.53052Z" fill="white"/>
<path d="M9.99979 10.9312L10.5709 12.6889L9.07568 11.6026H10.9239L9.42866 12.6889L9.99979 10.9312Z" fill="white"/>
<path d="M9.99979 14.332L10.5709 16.0898L9.07568 15.0034H10.9239L9.42866 16.0898L9.99979 14.332Z" fill="white"/>
<path d="M12 2.4292L12.5712 4.18695L11.0759 3.1006H12.9241L11.4289 4.18695L12 2.4292Z" fill="white"/>
<path d="M12 5.83008L12.5712 7.58783L11.0759 6.50148H12.9241L11.4289 7.58783L12 5.83008Z" fill="white"/>
<path d="M12 9.23096L12.5712 10.9887L11.0759 9.90236H12.9241L11.4289 10.9887L12 9.23096Z" fill="white"/>
<path d="M12 12.6316L12.5712 14.3893L11.0759 13.303H12.9241L11.4289 14.3893L12 12.6316Z" fill="white"/>
<path d="M13.9998 0.729004L14.5709 2.48675L13.0757 1.4004H14.9239L13.4287 2.48675L13.9998 0.729004Z" fill="white"/>
<path d="M13.9998 4.12939L14.5709 5.88714L13.0757 4.8008H14.9239L13.4287 5.88714L13.9998 4.12939Z" fill="white"/>
<path d="M13.9998 7.53052L14.5709 9.28827L13.0757 8.20192H14.9239L13.4287 9.28827L13.9998 7.53052Z" fill="white"/>
<path d="M13.9998 10.9312L14.5709 12.6889L13.0757 11.6026H14.9239L13.4287 12.6889L13.9998 10.9312Z" fill="white"/>
<path d="M13.9998 14.332L14.5709 16.0898L13.0757 15.0034H14.9239L13.4287 16.0898L13.9998 14.332Z" fill="white"/>
<path d="M15.9995 2.4292L16.5707 4.18695L15.0754 3.1006H16.9236L15.4284 4.18695L15.9995 2.4292Z" fill="white"/>
<path d="M15.9995 5.83008L16.5707 7.58783L15.0754 6.50148H16.9236L15.4284 7.58783L15.9995 5.83008Z" fill="white"/>
<path d="M15.9995 9.23096L16.5707 10.9887L15.0754 9.90236H16.9236L15.4284 10.9887L15.9995 9.23096Z" fill="white"/>
<path d="M15.9995 12.6316L16.5707 14.3893L15.0754 13.303H16.9236L15.4284 14.3893L15.9995 12.6316Z" fill="white"/>
<path d="M18.0003 0.729004L18.5714 2.48675L17.0762 1.4004H18.9244L17.4291 2.48675L18.0003 0.729004Z" fill="white"/>
<path d="M18.0003 4.12939L18.5714 5.88714L17.0762 4.8008H18.9244L17.4291 5.88714L18.0003 4.12939Z" fill="white"/>
<path d="M18.0003 7.53052L18.5714 9.28827L17.0762 8.20192H18.9244L17.4291 9.28827L18.0003 7.53052Z" fill="white"/>
<path d="M18.0003 10.9312L18.5714 12.6889L17.0762 11.6026H18.9244L17.4291 12.6889L18.0003 10.9312Z" fill="white"/>
<path d="M18.0003 14.332L18.5714 16.0898L17.0762 15.0034H18.9244L17.4291 16.0898L18.0003 14.332Z" fill="white"/>
<path d="M20 2.4292L20.5712 4.18695L19.0759 3.1006H20.9241L19.4289 4.18695L20 2.4292Z" fill="white"/>
<path d="M20 5.83008L20.5712 7.58783L19.0759 6.50148H20.9241L19.4289 7.58783L20 5.83008Z" fill="white"/>
<path d="M20 9.23096L20.5712 10.9887L19.0759 9.90236H20.9241L19.4289 10.9887L20 9.23096Z" fill="white"/>
<path d="M20 12.6316L20.5712 14.3893L19.0759 13.303H20.9241L19.4289 14.3893L20 12.6316Z" fill="white"/>
<path d="M22 0.729004L22.5712 2.48675L21.0759 1.4004H22.9241L21.4289 2.48675L22 0.729004Z" fill="white"/>
<path d="M22 4.12939L22.5712 5.88714L21.0759 4.8008H22.9241L21.4289 5.88714L22 4.12939Z" fill="white"/>
<path d="M22 7.53052L22.5712 9.28827L21.0759 8.20192H22.9241L21.4289 9.28827L22 7.53052Z" fill="white"/>
<path d="M22 10.9312L22.5712 12.6889L21.0759 11.6026H22.9241L21.4289 12.6889L22 10.9312Z" fill="white"/>
<path d="M22 14.332L22.5712 16.0898L21.0759 15.0034H22.9241L21.4289 16.0898L22 14.332Z" fill="white"/>
</g>
<defs>
<clipPath id="clip0_13_137">
<rect width="60" height="31.5789" fill="white"/>
</clipPath>
</defs>
</svg>
