<svg width="40" height="40" viewBox="0 0 40 40" fill="none" xmlns="http://www.w3.org/2000/svg">
<path d="M10.4167 17.9168H12.0834V15.4168H10.4167V17.9168ZM14.5834 21.2502H16.25V12.0835H14.5834V21.2502ZM19.1667 24.5835H20.8334V8.75016H19.1667V24.5835ZM23.75 21.2502H25.4167V12.0835H23.75V21.2502ZM27.9167 17.9168H29.5834V15.4168H27.9167V17.9168ZM3.33337 36.6668V5.8335C3.33337 5.16683 3.58337 4.5835 4.08337 4.0835C4.58337 3.5835 5.16671 3.3335 5.83337 3.3335H34.1667C34.8334 3.3335 35.4167 3.5835 35.9167 4.0835C36.4167 4.5835 36.6667 5.16683 36.6667 5.8335V27.5002C36.6667 28.1668 36.4167 28.7502 35.9167 29.2502C35.4167 29.7502 34.8334 30.0002 34.1667 30.0002H10L3.33337 36.6668Z" fill="#041B54"/>
</svg>
