<svg width="40" height="40" viewBox="0 0 40 40" fill="none" xmlns="http://www.w3.org/2000/svg">
<path d="M20.1667 35C19.6945 35 19.2917 34.8363 18.9584 34.5088C18.625 34.1814 18.4584 33.7757 18.4584 33.2917C18.4584 33.0972 18.5 32.8958 18.5834 32.6875C18.6667 32.4792 18.7917 32.2917 18.9584 32.125L26.6667 24.4167L25.7917 23.5417L18.0834 31.25C17.9167 31.4167 17.7362 31.5417 17.5417 31.625C17.3473 31.7083 17.1389 31.75 16.9167 31.75C16.4445 31.75 16.0487 31.5903 15.7292 31.2708C15.4098 30.9514 15.25 30.5556 15.25 30.0833C15.25 29.8056 15.2917 29.5764 15.375 29.3958C15.4584 29.2153 15.5695 29.0556 15.7084 28.9167L23.4167 21.2083L22.5417 20.3333L14.8334 28C14.6667 28.1667 14.4862 28.2917 14.2917 28.375C14.0973 28.4583 13.875 28.5 13.625 28.5C13.1806 28.5 12.7917 28.3333 12.4584 28C12.125 27.6667 11.9584 27.2778 11.9584 26.8333C11.9584 26.6111 12 26.4028 12.0834 26.2083C12.1667 26.0139 12.2917 25.8333 12.4584 25.6667L20.1667 17.9583L19.2917 17.0833L11.625 24.7917C11.4862 24.9306 11.3195 25.0417 11.125 25.125C10.9306 25.2083 10.6945 25.25 10.4167 25.25C9.94448 25.25 9.54865 25.0943 9.22921 24.7828C8.90976 24.4714 8.75004 24.0854 8.75004 23.625C8.75004 23.4028 8.79171 23.1944 8.87504 23C8.95837 22.8056 9.08337 22.625 9.25004 22.4583L18.5417 13.1667L23.8334 18.4583C24.1389 18.7639 24.4792 19.0208 24.8542 19.2292C25.2292 19.4375 25.6806 19.5417 26.2084 19.5417C27.0973 19.5417 27.8473 19.2569 28.4584 18.6875C29.0695 18.1181 29.375 17.3472 29.375 16.375C29.375 15.9861 29.2987 15.6042 29.1459 15.2292C28.9931 14.8542 28.7362 14.4861 28.375 14.125L20.9167 6.66667L21.1667 6.375C21.6389 5.93056 22.1667 5.59028 22.75 5.35417C23.3334 5.11806 23.9167 5 24.5 5C25.2223 5 25.8889 5.11806 26.5 5.35417C27.1112 5.59028 27.6667 5.95833 28.1667 6.45833L35.2084 13.5417C35.7084 14.0417 36.0764 14.5972 36.3125 15.2083C36.5486 15.8194 36.6667 16.5278 36.6667 17.3333C36.6667 17.8889 36.5417 18.4514 36.2917 19.0208C36.0417 19.5903 35.6806 20.1111 35.2084 20.5833L21.3334 34.5C21.1112 34.7222 20.9167 34.8611 20.75 34.9167C20.5834 34.9722 20.3889 35 20.1667 35ZM7.04171 22.8333L4.79171 20.5833C4.31949 20.1389 3.95837 19.6111 3.70837 19C3.45837 18.3889 3.33337 17.75 3.33337 17.0833C3.33337 16.3611 3.47226 15.6944 3.75004 15.0833C4.02782 14.4722 4.37504 13.9583 4.79171 13.5417L11.8334 6.45833C12.2778 6.01389 12.8056 5.65972 13.4167 5.39583C14.0278 5.13194 14.625 5 15.2084 5C15.9584 5 16.625 5.10417 17.2084 5.3125C17.7917 5.52083 18.3612 5.90278 18.9167 6.45833L27.4584 15C27.7084 15.25 27.882 15.4861 27.9792 15.7083C28.0764 15.9306 28.125 16.1528 28.125 16.375C28.125 16.9306 27.9445 17.3889 27.5834 17.75C27.2223 18.1111 26.7639 18.2917 26.2084 18.2917C25.9584 18.2917 25.7014 18.2292 25.4375 18.1042C25.1737 17.9792 24.9167 17.7917 24.6667 17.5417L18.5 11.375L7.04171 22.8333Z" fill="#041B54"/>
</svg>
