<svg width="32" height="32" viewBox="0 0 32 32" fill="none" xmlns="http://www.w3.org/2000/svg">
<g clip-path="url(#clip0_20_11)">
<circle cx="16" cy="16" r="15.8487" transform="rotate(-0.549546 16 16)" fill="#1A3869"/>
<path d="M10.8451 8.59467H12.861L7.22844 22.7056H5.21259L10.8451 8.59467ZM21.9434 23.0021C20.5205 23.0021 19.2556 22.7056 18.1489 22.1127C17.0421 21.5198 16.1791 20.6832 15.5599 19.6028C14.9406 18.5092 14.631 17.2444 14.631 15.8083C14.631 14.3721 14.9406 13.1073 15.5599 12.0137C16.1791 10.9201 17.0421 10.0769 18.1489 9.48402C19.2556 8.89112 20.5205 8.59467 21.9434 8.59467C23.8539 8.59467 25.4415 9.06899 26.7063 10.0176V11.9544C25.5601 10.9531 24.0317 10.4524 22.1213 10.4524C21.0804 10.4524 20.145 10.6698 19.3149 11.1046C18.4848 11.5394 17.8327 12.1652 17.3583 12.9821C16.8972 13.7858 16.6666 14.7279 16.6666 15.8083C16.6666 16.8886 16.8972 17.8373 17.3583 18.6542C17.8195 19.471 18.4585 20.0969 19.2754 20.5317C20.0923 20.9665 21.0145 21.1839 22.0422 21.1839C23.2412 21.1839 24.2228 20.9401 24.9869 20.4526V16.8359H22.3584V15.1956H27.0028V21.5198C26.3835 22.0337 25.6523 22.4092 24.8091 22.6463C23.979 22.8835 23.0238 23.0021 21.9434 23.0021Z" fill="#F0F0F0"/>
</g>
<defs>
<clipPath id="clip0_20_11">
<rect width="32" height="32" fill="white"/>
</clipPath>
</defs>
</svg>
