<svg width="40" height="50" viewBox="0 0 40 50" fill="none" xmlns="http://www.w3.org/2000/svg">
<path d="M18.125 29.375H21.875V21.875H29.375V18.125H21.875V10.625H18.125V18.125H10.625V21.875H18.125V29.375ZM20 45.0625C25.5417 40.0208 29.6354 35.4479 32.2812 31.3438C34.9271 27.2396 36.25 23.625 36.25 20.5C36.25 15.5921 34.6814 11.5734 31.5443 8.44406C28.4071 5.31469 24.559 3.75 20 3.75C15.441 3.75 11.5929 5.31469 8.45575 8.44406C5.31858 11.5734 3.75 15.5921 3.75 20.5C3.75 23.625 5.10417 27.2396 7.8125 31.3438C10.5208 35.4479 14.5833 40.0208 20 45.0625ZM20 50C13.2917 44.2917 8.28125 38.9896 4.96875 34.0938C1.65625 29.1979 0 24.6667 0 20.5C0 14.25 2.01042 9.27083 6.03125 5.5625C10.0521 1.85417 14.7083 0 20 0C25.2917 0 29.9479 1.85417 33.9688 5.5625C37.9896 9.27083 40 14.25 40 20.5C40 24.6667 38.3438 29.1979 35.0312 34.0938C31.7188 38.9896 26.7083 44.2917 20 50Z" fill="#01011D"/>
</svg>
