<svg width="400" height="50" viewBox="0 0 400 50" fill="none" xmlns="http://www.w3.org/2000/svg">
<path d="M78.52 9.92C82.808 9.92 86.504 11.28 89.608 14L85.624 18.176C84.44 17.28 83.336 16.64 82.312 16.256C81.32 15.84 80.168 15.632 78.856 15.632C76.392 15.632 74.424 16.608 72.952 18.56C71.48 20.48 70.744 23.408 70.744 27.344C70.744 31.6 71.304 34.624 72.424 36.416C73.544 38.176 75.288 39.056 77.656 39.056C79.32 39.056 80.824 38.688 82.168 37.952V30.416H77.848L77.08 24.848H89.8V41.312C88.072 42.432 86.168 43.296 84.088 43.904C82.008 44.512 79.928 44.816 77.848 44.816C72.792 44.816 68.984 43.344 66.424 40.4C63.864 37.424 62.584 33.072 62.584 27.344C62.584 23.696 63.272 20.56 64.648 17.936C66.056 15.312 67.96 13.328 70.36 11.984C72.792 10.608 75.512 9.92 78.52 9.92Z" fill="#05000F"/>
<path d="M115.169 36.608C115.169 37.568 115.297 38.272 115.553 38.72C115.841 39.168 116.289 39.504 116.897 39.728L115.313 44.672C113.745 44.544 112.465 44.208 111.473 43.664C110.481 43.088 109.713 42.192 109.169 40.976C107.505 43.536 104.945 44.816 101.489 44.816C98.9615 44.816 96.9455 44.08 95.4415 42.608C93.9375 41.136 93.1855 39.216 93.1855 36.848C93.1855 34.064 94.2095 31.936 96.2575 30.464C98.3055 28.992 101.265 28.256 105.137 28.256H107.729V27.152C107.729 25.648 107.409 24.624 106.769 24.08C106.129 23.504 105.009 23.216 103.409 23.216C102.577 23.216 101.569 23.344 100.385 23.6C99.2015 23.824 97.9855 24.144 96.7375 24.56L95.0095 19.568C96.6095 18.96 98.2415 18.496 99.9055 18.176C101.601 17.856 103.169 17.696 104.609 17.696C108.257 17.696 110.929 18.448 112.625 19.952C114.321 21.456 115.169 23.712 115.169 26.72V36.608ZM103.697 39.392C105.425 39.392 106.769 38.576 107.729 36.944V32.432H105.857C104.129 32.432 102.833 32.736 101.969 33.344C101.137 33.952 100.721 34.896 100.721 36.176C100.721 37.2 100.977 38 101.489 38.576C102.033 39.12 102.769 39.392 103.697 39.392Z" fill="#05000F"/>
<path d="M135.658 17.696C138.698 17.696 141.034 18.896 142.666 21.296C144.298 23.664 145.114 26.992 145.114 31.28C145.114 33.904 144.698 36.24 143.866 38.288C143.066 40.336 141.898 41.936 140.362 43.088C138.858 44.24 137.066 44.816 134.986 44.816C133.61 44.816 132.346 44.528 131.194 43.952C130.074 43.376 129.114 42.576 128.314 41.552L127.93 44H121.21V8.384L128.794 7.568V21.104C129.562 20.048 130.538 19.216 131.722 18.608C132.938 18 134.25 17.696 135.658 17.696ZM132.778 39.296C135.754 39.296 137.242 36.624 137.242 31.28C137.242 28.24 136.89 26.144 136.186 24.992C135.482 23.84 134.458 23.264 133.114 23.264C131.418 23.264 129.978 24.256 128.794 26.24V36.848C129.274 37.616 129.85 38.224 130.522 38.672C131.226 39.088 131.978 39.296 132.778 39.296Z" fill="#05000F"/>
<path d="M163.675 17.792C164.603 17.792 165.451 17.904 166.219 18.128L165.019 25.472C164.059 25.248 163.291 25.136 162.715 25.136C161.211 25.136 160.059 25.664 159.259 26.72C158.491 27.744 157.883 29.296 157.435 31.376V44H149.851V18.512H156.475L157.099 23.456C157.675 21.696 158.539 20.32 159.691 19.328C160.875 18.304 162.203 17.792 163.675 17.792Z" fill="#05000F"/>
<path d="M176.701 18.512V44H169.117V18.512H176.701ZM172.861 5.072C174.173 5.072 175.245 5.488 176.077 6.32C176.941 7.12 177.373 8.144 177.373 9.392C177.373 10.64 176.941 11.68 176.077 12.512C175.245 13.312 174.173 13.712 172.861 13.712C171.549 13.712 170.477 13.312 169.645 12.512C168.813 11.68 168.397 10.64 168.397 9.392C168.397 8.144 168.813 7.12 169.645 6.32C170.477 5.488 171.549 5.072 172.861 5.072Z" fill="#05000F"/>
<path d="M204.887 30.752C204.887 31.808 204.839 32.72 204.743 33.488H188.951C189.207 35.632 189.815 37.136 190.775 38C191.735 38.864 193.063 39.296 194.759 39.296C195.783 39.296 196.775 39.12 197.735 38.768C198.695 38.384 199.735 37.808 200.855 37.04L203.975 41.264C200.999 43.632 197.687 44.816 194.039 44.816C189.911 44.816 186.743 43.6 184.535 41.168C182.327 38.736 181.223 35.472 181.223 31.376C181.223 28.784 181.687 26.464 182.615 24.416C183.543 22.336 184.903 20.704 186.695 19.52C188.487 18.304 190.631 17.696 193.127 17.696C196.807 17.696 199.687 18.848 201.767 21.152C203.847 23.456 204.887 26.656 204.887 30.752ZM197.447 28.592C197.383 24.688 196.007 22.736 193.319 22.736C192.007 22.736 190.983 23.216 190.247 24.176C189.543 25.136 189.111 26.72 188.951 28.928H197.447V28.592Z" fill="#05000F"/>
<path d="M215.916 44.816C213.708 44.816 211.98 44.192 210.732 42.944C209.516 41.664 208.908 39.856 208.908 37.52V8.384L216.492 7.568V37.232C216.492 38.288 216.924 38.816 217.788 38.816C218.236 38.816 218.652 38.736 219.036 38.576L220.524 43.952C219.148 44.528 217.612 44.816 215.916 44.816Z" fill="#05000F"/>
<path d="M234.932 44V10.736H254.756L253.94 16.352H242.804V25.184H252.5V30.8H242.804V44H234.932Z" fill="#05000F"/>
<path d="M278.716 30.752C278.716 31.808 278.668 32.72 278.572 33.488H262.78C263.036 35.632 263.644 37.136 264.604 38C265.564 38.864 266.892 39.296 268.588 39.296C269.612 39.296 270.604 39.12 271.564 38.768C272.524 38.384 273.564 37.808 274.684 37.04L277.804 41.264C274.828 43.632 271.516 44.816 267.868 44.816C263.74 44.816 260.572 43.6 258.364 41.168C256.156 38.736 255.052 35.472 255.052 31.376C255.052 28.784 255.516 26.464 256.444 24.416C257.372 22.336 258.732 20.704 260.524 19.52C262.316 18.304 264.46 17.696 266.956 17.696C270.636 17.696 273.516 18.848 275.596 21.152C277.676 23.456 278.716 26.656 278.716 30.752ZM271.276 28.592C271.212 24.688 269.836 22.736 267.148 22.736C265.836 22.736 264.812 23.216 264.076 24.176C263.372 25.136 262.94 26.72 262.78 28.928H271.276V28.592Z" fill="#05000F"/>
<path d="M296.8 17.792C297.728 17.792 298.576 17.904 299.344 18.128L298.144 25.472C297.184 25.248 296.416 25.136 295.84 25.136C294.336 25.136 293.184 25.664 292.384 26.72C291.616 27.744 291.008 29.296 290.56 31.376V44H282.976V18.512H289.6L290.224 23.456C290.8 21.696 291.664 20.32 292.816 19.328C294 18.304 295.328 17.792 296.8 17.792Z" fill="#05000F"/>
<path d="M316.066 17.792C316.994 17.792 317.842 17.904 318.61 18.128L317.41 25.472C316.45 25.248 315.682 25.136 315.106 25.136C313.602 25.136 312.45 25.664 311.65 26.72C310.882 27.744 310.274 29.296 309.826 31.376V44H302.242V18.512H308.866L309.49 23.456C310.066 21.696 310.93 20.32 312.082 19.328C313.266 18.304 314.594 17.792 316.066 17.792Z" fill="#05000F"/>
<path d="M342.278 30.752C342.278 31.808 342.23 32.72 342.134 33.488H326.342C326.598 35.632 327.206 37.136 328.166 38C329.126 38.864 330.454 39.296 332.15 39.296C333.174 39.296 334.166 39.12 335.126 38.768C336.086 38.384 337.126 37.808 338.246 37.04L341.366 41.264C338.39 43.632 335.078 44.816 331.43 44.816C327.302 44.816 324.134 43.6 321.926 41.168C319.718 38.736 318.614 35.472 318.614 31.376C318.614 28.784 319.078 26.464 320.006 24.416C320.934 22.336 322.294 20.704 324.086 19.52C325.878 18.304 328.022 17.696 330.518 17.696C334.198 17.696 337.078 18.848 339.158 21.152C341.238 23.456 342.278 26.656 342.278 30.752ZM334.838 28.592C334.774 24.688 333.398 22.736 330.71 22.736C329.398 22.736 328.374 23.216 327.638 24.176C326.934 25.136 326.502 26.72 326.342 28.928H334.838V28.592Z" fill="#05000F"/>
<path d="M354.122 18.512V44H346.538V18.512H354.122ZM350.282 5.072C351.594 5.072 352.666 5.488 353.498 6.32C354.362 7.12 354.794 8.144 354.794 9.392C354.794 10.64 354.362 11.68 353.498 12.512C352.666 13.312 351.594 13.712 350.282 13.712C348.97 13.712 347.898 13.312 347.066 12.512C346.234 11.68 345.818 10.64 345.818 9.392C345.818 8.144 346.234 7.12 347.066 6.32C347.898 5.488 348.97 5.072 350.282 5.072Z" fill="#05000F"/>
<path d="M373.909 17.792C374.837 17.792 375.685 17.904 376.453 18.128L375.253 25.472C374.293 25.248 373.525 25.136 372.949 25.136C371.445 25.136 370.293 25.664 369.493 26.72C368.725 27.744 368.117 29.296 367.669 31.376V44H360.085V18.512H366.709L367.333 23.456C367.909 21.696 368.773 20.32 369.925 19.328C371.109 18.304 372.437 17.792 373.909 17.792Z" fill="#05000F"/>
<path d="M397.919 36.608C397.919 37.568 398.047 38.272 398.303 38.72C398.591 39.168 399.039 39.504 399.647 39.728L398.063 44.672C396.495 44.544 395.215 44.208 394.223 43.664C393.231 43.088 392.463 42.192 391.919 40.976C390.255 43.536 387.695 44.816 384.239 44.816C381.711 44.816 379.695 44.08 378.191 42.608C376.687 41.136 375.935 39.216 375.935 36.848C375.935 34.064 376.959 31.936 379.007 30.464C381.055 28.992 384.015 28.256 387.887 28.256H390.479V27.152C390.479 25.648 390.159 24.624 389.519 24.08C388.879 23.504 387.759 23.216 386.159 23.216C385.327 23.216 384.319 23.344 383.135 23.6C381.951 23.824 380.735 24.144 379.487 24.56L377.759 19.568C379.359 18.96 380.991 18.496 382.655 18.176C384.351 17.856 385.919 17.696 387.359 17.696C391.007 17.696 393.679 18.448 395.375 19.952C397.071 21.456 397.919 23.712 397.919 26.72V36.608ZM386.447 39.392C388.175 39.392 389.519 38.576 390.479 36.944V32.432H388.607C386.879 32.432 385.583 32.736 384.719 33.344C383.887 33.952 383.471 34.896 383.471 36.176C383.471 37.2 383.727 38 384.239 38.576C384.783 39.12 385.519 39.392 386.447 39.392Z" fill="#05000F"/>
<path d="M49.7625 24.7625C49.8936 38.4384 38.9134 49.6313 25.2375 49.7625C11.5615 49.8936 0.368667 38.9134 0.237491 25.2375C0.106316 11.5616 11.0865 0.368674 24.7625 0.237499C38.4384 0.106324 49.6313 11.0865 49.7625 24.7625Z" fill="#1A3869"/>
<path d="M16.9452 13.7416H20.095L11.2942 35.79H8.14443L16.9452 13.7416Z" fill="#F0F0F0"/>
<path d="M34.2863 36.2532C32.063 36.2532 30.0866 35.79 28.3574 34.8636C26.6281 33.9372 25.2796 32.63 24.3121 30.9418C23.3445 29.2331 22.8607 27.2568 22.8607 25.0129C22.8607 22.7689 23.3445 20.7926 24.3121 19.0839C25.2796 17.3752 26.6281 16.0577 28.3574 15.1312C30.0866 14.2048 32.063 13.7416 34.2863 13.7416C37.2714 13.7416 39.7521 14.4828 41.7284 15.965V18.9913C39.9374 17.4267 37.5493 16.6444 34.5643 16.6444C32.9379 16.6444 31.4762 16.9841 30.1793 17.6634C28.8823 18.3428 27.8633 19.3206 27.1222 20.597C26.4016 21.8528 26.0414 23.3248 26.0414 25.0129C26.0414 26.701 26.4016 28.1832 27.1222 29.4596C27.8427 30.736 28.8411 31.7138 30.1175 32.3932C31.3939 33.0726 32.835 33.4122 34.4407 33.4122C36.3141 33.4122 37.8478 33.0314 39.0419 32.2697V26.6186H34.9348V24.0556H42.1916V33.9372C41.2241 34.7401 40.0815 35.3268 38.7639 35.6974C37.467 36.0679 35.9744 36.2532 34.2863 36.2532Z" fill="#F0F0F0"/>
</svg>
